<?xml version="1.0" standalone="no"?>
<!DOCTYPE svg PUBLIC "-//W3C//DTD SVG 20010904//EN"
 "http://www.w3.org/TR/2001/REC-SVG-20010904/DTD/svg10.dtd">
<svg version="1.0" xmlns="http://www.w3.org/2000/svg"
 width="277.000000pt" height="208.000000pt" viewBox="0 0 277.000000 208.000000"
 preserveAspectRatio="xMidYMid meet">

<g transform="translate(0.000000,208.000000) scale(0.100000,-0.100000)"
fill="#000000" stroke="none">
<path d="M1168 1991 c-31 -10 -70 -28 -86 -40 -22 -15 -45 -21 -85 -21 -48 0
-62 -5 -101 -35 -26 -19 -88 -52 -139 -72 -97 -39 -168 -79 -301 -170 -143
-99 -236 -203 -236 -265 0 -15 -12 -63 -27 -105 -23 -66 -27 -93 -25 -177 1
-89 4 -103 32 -152 16 -29 39 -88 50 -131 12 -43 29 -89 39 -103 28 -39 102
-61 234 -70 141 -10 145 -12 242 -140 68 -89 72 -93 140 -117 114 -40 239 -63
281 -50 39 11 222 1 309 -18 39 -8 106 -32 150 -54 88 -44 195 -132 195 -161
0 -29 32 -42 58 -25 29 21 35 62 16 125 -36 126 -28 147 46 117 47 -18 81 -12
160 28 106 53 176 111 239 198 32 45 78 101 100 124 23 23 41 47 41 52 0 5 9
13 20 16 11 3 22 18 26 33 3 15 15 46 26 69 21 39 21 46 9 140 -13 98 -50 274
-70 325 -9 25 -111 187 -176 280 -15 21 -82 85 -150 143 -132 113 -222 164
-303 173 -26 3 -60 13 -77 24 -16 10 -48 18 -70 18 -22 0 -65 7 -95 15 -30 8
-93 15 -140 15 -77 1 -185 11 -250 25 -14 2 -50 -4 -82 -14z m177 -41 c39 -5
108 -9 155 -10 47 0 110 -7 140 -15 30 -8 72 -15 93 -15 78 0 91 -35 29 -79
l-29 -20 -108 40 c-60 22 -113 47 -120 55 -10 14 -29 14 -196 0 -102 -8 -193
-18 -202 -22 -27 -10 -21 23 8 42 37 24 107 44 135 38 14 -2 57 -9 95 -14z
m-261 -99 c8 -22 22 -43 29 -48 19 -11 42 -82 30 -94 -5 -5 -28 -3 -53 5 -43
13 -45 14 -42 49 3 29 -1 39 -21 51 -20 14 -47 54 -47 71 0 3 20 5 44 5 42 0
45 -2 60 -39z m278 27 c-54 -12 -68 -35 -77 -125 -10 -104 -26 -102 -70 13
-20 53 -34 98 -31 102 6 6 129 19 191 19 24 1 21 -1 -13 -9z m128 2 c0 -5 -4
-10 -10 -10 -5 0 -10 5 -10 10 0 6 5 10 10 10 6 0 10 -4 10 -10z m-523 -29 c8
-24 8 -31 -3 -35 -24 -9 -28 -55 -8 -78 19 -20 19 -20 -16 -13 -48 10 -46 9
-53 60 -6 42 -4 49 21 70 35 32 45 31 59 -4z m526 -10 c44 -9 31 -27 -18 -23
-43 3 -75 29 -53 43 7 4 18 3 25 -3 7 -6 28 -14 46 -17z m466 3 c64 -28 69
-37 24 -49 -16 -3 -36 -14 -45 -22 -16 -14 -22 -14 -72 7 -61 24 -75 44 -50
71 24 26 72 24 143 -7z m-571 -6 c34 -34 -6 -90 -48 -68 -20 10 -28 58 -13 73
11 11 48 8 61 -5z m282 -29 c66 -25 90 -45 90 -75 0 -36 -11 -55 -37 -65 -13
-5 -31 -22 -40 -37 l-17 -29 -58 15 c-32 8 -58 19 -58 25 0 6 -8 19 -17 29
-17 19 -15 21 36 68 41 39 51 54 46 70 -8 24 -12 24 55 -1z m-807 -26 c4 -20
5 -38 4 -40 -2 -1 -19 1 -38 6 -19 5 -47 12 -64 16 -29 6 -29 7 25 30 30 12
58 23 61 24 4 0 9 -16 12 -36z m722 17 c0 -8 -8 -16 -17 -18 -13 -2 -18 3 -18
18 0 15 5 20 18 18 9 -2 17 -10 17 -18z m-376 -85 c37 -96 38 -105 7 -76 -14
13 -22 30 -19 37 3 8 -1 22 -9 32 -27 33 -43 122 -17 95 4 -5 22 -44 38 -88z
m581 80 c0 -8 -7 -15 -15 -15 -16 0 -20 12 -8 23 11 12 23 8 23 -8z m-259 -26
c9 -18 7 -26 -17 -50 -15 -16 -33 -29 -40 -29 -6 0 -17 -7 -24 -15 -18 -22
-22 -19 -48 25 l-22 39 22 25 c32 33 112 37 129 5z m629 -64 c112 -96 124
-111 89 -102 -13 3 -63 9 -110 12 l-86 7 -10 67 c-6 36 -14 74 -18 84 -6 13
-2 17 15 17 12 0 62 -35 120 -85z m-293 47 c22 -9 54 -32 71 -49 29 -29 32
-37 32 -97 0 -39 -4 -66 -10 -66 -6 0 -32 11 -59 25 -34 17 -51 32 -55 50 -4
15 -20 34 -36 43 -32 18 -40 55 -20 93 13 24 27 24 77 1z m-463 -106 c20 -41
44 -77 52 -80 32 -12 64 -5 81 17 17 23 19 24 73 10 30 -8 56 -16 56 -16 1 -1
5 -13 9 -26 l7 -24 -92 7 c-75 6 -95 5 -108 -8 -16 -13 -24 -11 -90 26 -53 29
-71 43 -63 51 16 16 13 45 -7 65 -13 13 -17 29 -14 55 l4 37 28 -20 c15 -11
44 -53 64 -94z m-609 87 l75 -16 6 -51 c5 -36 15 -58 34 -76 23 -22 25 -29 17
-57 -6 -18 -18 -35 -28 -38 -10 -4 -27 -19 -38 -34 -15 -21 -32 -30 -63 -34
-24 -3 -48 -1 -55 5 -21 17 -15 54 12 72 56 37 36 116 -30 116 -27 0 -39 -7
-57 -30 -26 -35 -37 -37 -61 -10 -20 24 -49 91 -42 98 19 20 114 71 132 71 12
1 56 -6 98 -16z m365 -81 c19 -14 53 -41 75 -60 l40 -35 -29 -29 -29 -29 -23
21 c-17 17 -21 29 -17 55 6 39 -4 46 -89 65 -32 7 -58 18 -58 23 0 6 -10 21
-21 33 l-21 23 68 -21 c38 -11 85 -32 104 -46z m-172 26 c7 -7 12 -21 12 -33
0 -12 -5 -26 -12 -33 -28 -28 -78 -7 -78 33 0 12 5 26 12 33 7 7 21 12 33 12
12 0 26 -5 33 -12z m1042 -50 c6 -35 16 -70 21 -80 11 -20 -7 -74 -26 -82 -7
-2 -21 -21 -31 -41 -21 -45 -80 -93 -95 -78 -18 18 0 51 47 90 l44 37 0 101
c0 56 3 105 7 108 14 15 21 4 33 -55z m-1475 -39 c0 -59 13 -71 61 -57 29 8
39 6 64 -14 56 -44 28 -93 -75 -128 -79 -27 -84 -26 -91 20 -7 44 -24 63 -50
58 -46 -9 -42 -67 7 -78 16 -4 25 -15 30 -38 3 -17 12 -39 19 -47 10 -13 9
-15 -11 -14 -13 1 -30 0 -38 -2 -9 -3 -26 18 -46 55 -17 33 -41 64 -53 69 -33
15 -60 -15 -68 -75 -6 -40 -15 -58 -45 -88 -50 -49 -49 -73 0 -120 53 -48 68
-86 44 -114 -10 -12 -18 -22 -19 -24 -1 -2 -17 3 -36 11 -34 14 -35 17 -42 79
-7 73 3 140 33 216 12 29 21 66 21 81 0 60 69 136 221 243 62 45 74 40 74 -33z
m752 60 c16 -16 5 -39 -18 -39 -12 0 -19 7 -19 18 0 31 17 41 37 21z m208 -24
c0 -25 -4 -31 -27 -33 -19 -2 -28 2 -33 18 -8 27 12 52 39 48 16 -2 21 -10 21
-33z m299 3 c22 -31 20 -58 -6 -85 -59 -63 -152 14 -102 85 21 31 87 31 108 0z
m-721 -15 c5 -3 6 -11 3 -18 -2 -7 0 -31 5 -53 8 -37 6 -43 -20 -71 -32 -34
-91 -44 -91 -16 0 8 -11 22 -24 30 -22 14 -23 19 -13 50 6 19 16 35 23 35 7 0
23 13 36 29 22 28 48 32 81 14z m63 -24 c7 -12 -15 -31 -28 -23 -4 3 -8 12 -8
20 0 17 26 19 36 3z m942 -12 c2 -10 -3 -17 -12 -17 -18 0 -29 16 -21 31 9 14
29 6 33 -14z m172 3 c22 0 34 -10 59 -48 17 -27 31 -52 31 -55 0 -4 -40 -7
-89 -7 -80 0 -91 -2 -115 -25 -27 -25 -66 -34 -66 -16 0 5 -7 17 -15 25 -14
14 -14 19 1 48 9 18 23 37 30 41 8 4 14 17 14 29 0 20 4 20 61 14 34 -3 74 -6
89 -6z m-955 -18 c-3 -3 -11 0 -18 7 -9 10 -8 11 6 5 10 -3 15 -9 12 -12z
m573 -20 c33 -25 15 -41 -98 -87 -52 -21 -100 -42 -106 -46 -6 -5 -31 9 -60
32 -92 76 -95 72 47 64 l126 -7 29 31 c34 36 33 35 62 13z m-660 -97 c19 -26
32 -48 30 -50 -6 -5 -107 -55 -113 -55 -13 0 -3 29 15 41 10 8 22 26 26 41 5
23 0 33 -25 57 -17 16 -31 37 -31 46 0 15 5 14 33 -7 17 -14 47 -47 65 -73z
m246 19 c14 -20 13 -25 -5 -48 -11 -14 -25 -23 -30 -20 -6 3 -25 37 -43 75
l-33 69 48 -27 c27 -14 55 -36 63 -49z m52 35 c10 -17 -13 -36 -27 -22 -12 12
-4 33 11 33 5 0 12 -5 16 -11z m434 -3 c0 -21 -21 -31 -30 -15 -5 7 -6 17 -4
21 9 14 34 9 34 -6z m-1002 -38 c7 -7 12 -21 12 -33 0 -12 -5 -26 -12 -33 -28
-28 -78 -7 -78 33 0 12 5 26 12 33 7 7 21 12 33 12 12 0 26 -5 33 -12z m197
-22 c0 -17 -7 -33 -18 -40 -15 -9 -22 -7 -37 12 -26 32 -11 65 28 60 22 -2 27
-8 27 -32z m519 -75 c5 -9 15 -20 22 -26 6 -5 14 -25 16 -42 4 -28 2 -32 -16
-31 -12 1 -47 -7 -78 -17 l-57 -18 -31 33 -31 33 -82 -6 -82 -5 70 24 c85 30
105 46 87 74 -10 17 -7 24 24 55 l35 35 57 -46 c31 -25 61 -54 66 -63z m235
95 c16 -19 -8 -37 -39 -29 -15 4 -27 1 -34 -9 -14 -18 -73 -31 -81 -18 -6 9
105 68 131 69 6 1 17 -5 23 -13z m151 -32 c0 -17 -26 -19 -36 -3 -7 12 15 31
28 23 4 -3 8 -12 8 -20z m159 12 c15 -18 3 -46 -20 -46 -25 0 -35 26 -19 45
15 19 24 19 39 1z m196 -35 c14 -19 25 -38 25 -42 0 -4 -27 0 -60 8 -54 14
-62 14 -84 0 -23 -15 -23 -15 -35 22 -6 21 -11 42 -11 47 0 5 31 7 70 4 65 -5
71 -7 95 -39z m-1935 29 c0 -5 -4 -10 -10 -10 -5 0 -10 5 -10 10 0 6 5 10 10
10 6 0 10 -4 10 -10z m929 -36 c12 -19 21 -39 21 -44 0 -13 -119 -50 -125 -39
-10 16 -44 10 -54 -9 -6 -10 -7 -29 -4 -41 4 -14 0 -26 -12 -35 -15 -11 -17
-22 -12 -72 l6 -59 -19 25 c-11 14 -20 31 -20 38 0 7 -11 24 -26 38 -20 21
-24 34 -22 67 l3 42 104 52 c57 29 109 57 115 63 16 16 23 12 45 -26z m-681
15 c-2 -6 -8 -10 -13 -10 -5 0 -11 4 -13 10 -2 6 4 11 13 11 9 0 15 -5 13 -11z
m353 -18 c16 -16 29 -34 29 -40 0 -6 -18 -22 -40 -37 l-39 -26 -29 21 c-45 32
-56 48 -39 58 8 4 19 18 26 31 17 31 56 28 92 -7z m-218 -1 c3 -11 19 -25 35
-31 17 -6 37 -21 46 -33 13 -21 13 -25 -5 -45 -11 -11 -37 -30 -58 -41 -36
-18 -40 -18 -53 -3 -7 9 -26 22 -42 28 -22 10 -33 24 -42 55 -20 66 -4 81 92
88 14 1 24 -5 27 -18z m875 -13 c2 -12 -3 -17 -17 -17 -15 0 -21 6 -21 21 0
25 33 22 38 -4z m426 4 c22 -24 14 -56 -21 -89 -21 -19 -34 -22 -77 -20 -49 3
-51 4 -48 29 2 15 -4 34 -13 43 -25 24 -12 47 22 41 15 -3 42 -1 58 4 46 14
60 13 79 -8z m-1786 -14 c2 -12 -3 -17 -17 -17 -12 0 -21 6 -21 13 0 31 32 34
38 4z m314 11 c8 -7 21 -34 27 -59 12 -45 12 -46 -18 -77 -18 -17 -31 -41 -31
-55 0 -40 -27 -118 -47 -132 -15 -11 -21 -11 -35 2 -10 9 -18 22 -18 29 0 7
-11 21 -25 32 -26 21 -48 102 -27 102 6 0 16 18 22 39 5 21 17 42 25 45 8 3
15 16 15 30 0 20 8 27 43 39 53 19 50 19 69 5z m1171 -29 c52 -42 63 -73 37
-99 -27 -27 -25 -56 5 -86 22 -22 29 -24 82 -17 49 5 56 4 48 -8 -6 -8 -24
-33 -39 -56 -16 -24 -34 -43 -41 -43 -7 0 -18 -7 -25 -15 -7 -8 -16 -15 -21
-15 -18 0 -44 68 -49 129 -6 79 -22 93 -74 69 l-34 -17 -7 42 c-3 23 -8 53
-10 67 -7 39 28 73 80 79 6 0 28 -13 48 -30z m393 -21 c4 -23 15 -49 25 -59
17 -17 17 -18 -6 -33 -14 -9 -27 -16 -30 -16 -3 0 -14 -9 -25 -20 -16 -16 -33
-20 -82 -20 -35 0 -80 -3 -102 -7 -31 -5 -38 -3 -34 8 3 10 33 16 99 22 52 5
100 13 106 19 18 15 16 65 -2 76 -13 7 -14 14 -5 37 22 58 47 54 56 -7z m-786
32 c0 -5 -2 -10 -4 -10 -3 0 -8 5 -11 10 -3 6 -1 10 4 10 6 0 11 -4 11 -10z
m890 -29 c20 -38 -13 -71 -51 -51 -21 12 -25 40 -7 58 18 18 46 14 58 -7z
m-1810 -1 c0 -5 -2 -10 -4 -10 -3 0 -8 5 -11 10 -3 6 -1 10 4 10 6 0 11 -4 11
-10z m1906 -5 c15 -5 51 -133 74 -268 27 -161 27 -159 -12 -155 -30 3 -33 6
-30 33 2 21 -3 37 -18 50 l-20 18 21 23 c18 19 20 26 9 38 -9 11 -10 35 -5 84
7 68 0 90 -33 104 -12 5 -52 64 -52 77 0 10 23 9 66 -4z m-2025 -44 c13 -25
31 -55 40 -66 27 -33 31 -80 9 -100 -11 -10 -20 -22 -20 -27 0 -5 -14 -27 -31
-48 -31 -38 -32 -39 -55 -22 -12 9 -30 33 -39 53 -17 36 -17 36 14 67 39 39
39 66 -1 105 -29 29 -34 42 -24 72 2 6 21 11 43 11 37 2 41 -1 64 -45z m1557
28 c3 -17 -23 -33 -39 -23 -5 3 -9 14 -9 25 0 15 6 20 22 17 13 -2 24 -10 26
-19z m-876 -46 c2 -29 -2 -43 -20 -61 -53 -52 4 -137 65 -97 21 14 27 15 34 4
33 -54 -132 -29 -187 28 -28 29 -30 34 -19 60 17 38 88 101 117 103 4 0 8 -17
10 -37z m178 28 c0 -6 -4 -13 -10 -16 -5 -3 -10 1 -10 9 0 9 5 16 10 16 6 0
10 -4 10 -9z m910 -31 c0 -24 -26 -38 -42 -22 -16 16 -2 42 22 42 13 0 20 -7
20 -20z m198 -17 c-7 -9 -17 -25 -23 -37 -15 -29 -51 -33 -65 -6 -10 18 -8 24
7 36 10 7 23 14 29 14 6 0 17 7 24 15 10 12 16 13 26 4 11 -9 12 -15 2 -26z
m-1890 9 c2 -7 -3 -12 -12 -12 -9 0 -16 7 -16 16 0 17 22 14 28 -4z m885 -11
c-3 -12 -19 -23 -43 -29 -34 -8 -41 -7 -60 14 l-22 23 33 4 c83 10 97 8 92
-12z m115 7 c21 -21 14 -66 -12 -83 -18 -12 -30 -13 -50 -6 -14 6 -26 15 -26
21 0 6 11 3 24 -5 36 -24 68 -5 64 38 -3 28 -7 32 -35 35 -26 3 -34 -2 -47
-25 -8 -15 -15 -23 -16 -18 0 6 7 21 16 33 17 24 62 30 82 10z m-710 -14 c45
-31 20 -104 -37 -104 -61 0 -87 65 -41 102 27 22 49 23 78 2z m1332 7 c0 -5
-25 -12 -56 -16 -45 -5 -60 -4 -72 9 -15 15 -10 16 56 16 40 0 72 -4 72 -9z
m-1172 -29 c2 -15 -7 -32 -29 -51 -29 -27 -34 -42 -69 -203 -38 -176 -39 -209
-5 -222 32 -12 65 -6 77 14 11 17 24 20 85 20 l71 0 32 40 c17 22 35 40 39 40
8 0 37 -79 30 -83 -2 -1 -17 -9 -33 -17 -40 -21 -67 -60 -71 -103 -5 -58 -15
-80 -52 -114 -42 -39 -43 -39 -66 -13 -20 24 -31 25 -51 4 -21 -20 -20 -31 4
-61 11 -15 18 -28 16 -30 -14 -14 -53 29 -102 113 -50 85 -55 98 -44 119 19
36 -2 65 -48 65 -20 0 -60 3 -87 6 -54 7 -52 3 -46 68 1 5 11 0 24 -12 45 -42
135 -18 138 36 2 47 -3 211 -7 239 -6 29 -3 33 29 46 26 11 38 25 47 51 8 25
23 42 48 56 45 24 66 22 70 -8z m750 16 c26 -26 8 -58 -33 -58 -23 0 -30 42
-9 57 22 16 27 16 42 1z m-84 -21 c-7 -19 34 -67 56 -67 11 0 35 8 55 17 31
15 37 15 45 3 14 -22 14 -22 -30 -65 -36 -35 -41 -37 -57 -24 -10 9 -53 26
-96 39 -42 13 -76 26 -74 29 1 3 9 18 16 33 18 35 98 67 85 35z m824 -4 c-5
-26 -38 -29 -38 -4 0 15 6 21 21 21 14 0 19 -5 17 -17z m-1293 -48 c0 -25 -4
-30 -24 -30 -32 0 -49 28 -31 50 7 9 23 15 34 13 16 -2 21 -10 21 -33z m243
11 c8 -19 28 -30 84 -46 120 -36 120 -36 106 -61 -12 -20 -18 -20 -98 -14 -67
5 -87 10 -98 26 -7 10 -18 19 -23 19 -6 0 -25 12 -44 27 -36 28 -36 49 -1 63
38 16 62 11 74 -14z m432 14 c0 -5 -7 -10 -16 -10 -8 0 -12 5 -9 10 3 6 10 10
16 10 5 0 9 -4 9 -10z m407 -40 c32 -25 38 -25 64 1 11 11 25 19 31 17 6 -2
-5 -16 -24 -30 l-34 -26 -81 22 c-45 12 -85 25 -89 29 -4 4 19 7 50 7 43 0 65
-5 83 -20z m213 -25 c0 -40 -16 -54 -94 -82 -69 -25 -87 -23 -30 4 42 19 55
52 34 79 -20 23 3 40 49 36 39 -4 41 -6 41 -37z m-1460 -20 c0 -15 -7 -26 -20
-30 -41 -13 -70 43 -33 64 25 13 53 -5 53 -34z m304 19 c31 -25 32 -28 20 -54
-21 -41 -52 -66 -66 -52 -8 8 -8 15 0 25 8 9 10 31 6 61 -4 25 -4 46 0 46 4 0
22 -12 40 -26z m542 10 c-3 -9 -6 -23 -6 -32 0 -19 -125 -192 -139 -192 -5 0
-13 12 -19 28 -8 23 -6 30 14 45 13 10 24 23 24 29 0 15 109 138 122 138 6 0
7 -7 4 -16z m-1121 -6 c22 -10 25 -18 25 -58 0 -26 3 -68 6 -93 l7 -45 -42 5
c-54 7 -83 -12 -105 -71 l-18 -46 -43 4 c-106 10 -80 40 135 155 22 12 24 59
5 81 -12 13 -15 27 -10 49 8 35 6 35 40 19z m1365 -3 c0 -8 -7 -15 -15 -15 -8
0 -15 7 -15 15 0 8 7 15 15 15 8 0 15 -7 15 -15z m110 -16 c70 -19 100 -33
100 -48 0 -3 -14 -14 -30 -23 -26 -15 -30 -23 -30 -62 0 -32 -5 -48 -17 -55
-15 -8 -23 5 -60 97 -24 58 -43 107 -43 109 0 4 0 4 80 -18z m-1646 -14 c7
-20 -18 -49 -38 -42 -25 10 -32 38 -12 53 20 14 42 9 50 -11z m1521 -63 c3
-26 9 -57 12 -69 9 -40 -13 -25 -26 17 -6 21 -21 46 -33 54 -20 14 -20 16 -4
41 23 35 42 19 51 -43z m-964 42 c52 -12 79 -24 107 -50 l37 -33 -35 -36 c-30
-31 -36 -34 -46 -20 -6 8 -9 26 -7 39 6 29 -10 41 -35 27 -14 -8 -192 -51
-208 -51 -12 0 52 91 67 95 10 4 24 15 29 26 13 23 5 23 91 3z m1051 -118 l55
-135 -66 -65 c-37 -36 -71 -66 -78 -66 -6 0 -16 -7 -23 -15 -17 -21 -21 -20
-59 26 -31 37 -32 41 -17 58 11 12 16 37 16 77 0 56 2 62 31 83 l30 22 12 -30
c6 -17 20 -34 30 -37 37 -12 64 40 33 65 -8 6 -17 33 -21 59 -3 26 -9 57 -12
70 -3 12 -1 22 5 22 5 0 34 -60 64 -134z m-922 109 c0 -8 -7 -15 -15 -15 -8 0
-15 7 -15 15 0 8 7 15 15 15 8 0 15 -7 15 -15z m140 -15 c0 -11 -7 -20 -15
-20 -8 0 -15 9 -15 20 0 11 7 20 15 20 8 0 15 -9 15 -20z m-444 -3 c3 -8 -7
-33 -21 -58 -22 -37 -26 -39 -20 -15 3 15 9 41 12 57 6 30 20 38 29 16z m-441
-7 c8 -14 48 -13 63 2 14 14 35 -2 55 -42 14 -27 14 -28 -42 -60 -53 -30 -57
-31 -82 -16 -15 9 -41 16 -58 16 -34 0 -36 5 -18 36 38 65 67 88 82 64z m182
-1 c16 -16 5 -39 -18 -39 -12 0 -19 7 -19 18 0 31 17 41 37 21z m834 -9 c53 0
62 -3 86 -30 14 -16 31 -30 38 -30 6 0 22 -29 34 -64 12 -36 29 -67 36 -69 7
-3 34 -33 59 -66 41 -54 45 -63 34 -81 -20 -31 -89 -28 -134 8 -28 22 -34 34
-34 64 0 78 -46 121 -101 94 l-28 -14 -7 44 c-6 44 -40 84 -70 84 -7 0 -17 8
-23 17 -12 22 15 57 37 48 7 -3 40 -5 73 -5z m929 0 c0 -6 -11 -16 -25 -22
-27 -12 -41 -45 -31 -76 9 -27 48 -42 111 -42 56 0 65 -6 43 -28 -15 -15 -74
-16 -83 -2 -9 15 -72 12 -88 -5 -8 -8 -18 -37 -22 -65 -5 -40 -11 -50 -24 -48
-13 3 -17 18 -19 79 -2 61 -7 80 -22 94 -29 26 -25 58 8 72 33 15 134 51 145
52 4 1 7 -4 7 -9z m-2059 -26 c17 -21 0 -49 -32 -49 -24 0 -36 23 -25 51 7 19
40 18 57 -2z m963 5 c36 -17 39 -35 11 -63 l-25 -25 -20 29 c-23 33 -24 42 -8
58 15 15 12 14 42 1z m535 -68 l33 -79 -21 -21 -21 -21 -56 35 c-30 19 -57 42
-60 50 -7 17 62 115 80 115 7 0 27 -36 45 -79z m29 28 c14 -32 29 -53 42 -56
14 -4 20 -14 20 -34 0 -31 -11 -37 -28 -16 -17 21 -72 157 -63 157 5 0 18 -23
29 -51z m-1600 -20 c19 -23 32 -29 64 -29 35 0 39 -2 33 -20 -10 -31 10 -55
60 -74 64 -25 56 -44 -25 -67 -111 -31 -114 -30 -141 86 -7 28 -23 72 -36 98
l-24 49 22 -7 c12 -4 33 -20 47 -36z m2163 25 c17 -21 0 -49 -31 -49 -31 0
-48 28 -31 49 8 9 21 16 31 16 10 0 23 -7 31 -16z m-1325 -40 c15 -35 14 -38
-5 -58 -16 -16 -23 -18 -33 -8 -15 15 -43 15 -67 0 -15 -9 -25 -6 -55 17 -42
32 -45 43 -13 50 12 3 49 11 82 19 33 8 64 15 68 15 4 1 15 -15 23 -35z m157
-13 c15 -22 27 -45 27 -51 0 -7 14 -25 30 -40 l31 -29 -25 -50 -26 -49 -34 34
c-19 19 -41 34 -51 34 -10 0 -25 21 -41 56 -26 60 -27 59 20 112 27 30 37 28
69 -17z m-383 -11 c0 -5 -5 -10 -11 -10 -5 0 -7 5 -4 10 3 6 8 10 11 10 2 0 4
-4 4 -10z m-176 -16 c45 -45 -17 -114 -70 -79 -26 17 -33 62 -12 83 17 17 64
15 82 -4z m1529 -6 c7 -21 -4 -38 -23 -38 -23 0 -34 16 -26 35 7 18 43 20 49
3z m-541 -13 c0 -5 -5 -11 -11 -13 -6 -2 -11 4 -11 13 0 9 5 15 11 13 6 -2 11
-8 11 -13z m-842 -5 c0 -5 -5 -10 -11 -10 -5 0 -7 5 -4 10 3 6 8 10 11 10 2 0
4 -4 4 -10z m106 -25 l39 -34 -40 0 c-31 0 -44 5 -58 24 -19 26 -16 45 7 45 7
0 30 -16 52 -35z m104 -15 c0 -13 -7 -20 -19 -20 -22 0 -35 15 -26 30 12 19
45 11 45 -10z m719 -7 c26 -14 55 -39 64 -55 9 -15 22 -28 29 -28 14 0 118
-112 118 -128 0 -5 9 -17 20 -27 27 -24 26 -30 -15 -71 -30 -30 -40 -34 -65
-29 -27 6 -28 8 -18 31 16 34 -3 70 -46 88 -32 14 -35 17 -29 49 4 29 1 37
-15 46 -12 6 -41 38 -66 70 -67 87 -61 102 23 54z m-330 -37 c1 -11 10 -29 21
-41 l20 -21 -56 -67 c-31 -36 -64 -69 -74 -72 -10 -3 -21 -12 -24 -20 -3 -9
-19 -15 -41 -15 l-36 0 20 29 c12 16 24 44 28 63 9 48 71 168 87 168 7 0 20 7
27 16 12 14 14 14 20 -3 4 -10 8 -27 8 -37z m951 39 c0 -16 -45 -21 -54 -6 -8
12 4 21 31 21 14 0 23 -6 23 -15z m-1515 -24 c0 -34 -30 -51 -51 -29 -25 24
-10 60 24 56 21 -2 27 -8 27 -27z m1033 -3 c3 -24 0 -28 -23 -28 -27 0 -41 20
-31 46 10 27 51 13 54 -18z m283 -76 c-17 -20 -44 -45 -60 -55 -27 -16 -29
-16 -47 4 -18 20 -18 21 56 92 l75 72 3 -37 c3 -30 -3 -46 -27 -76z m270 70
c-6 -2 -18 -10 -26 -18 -9 -9 -20 -12 -29 -7 -12 7 -12 11 3 29 22 27 55 35
60 15 2 -9 -2 -17 -8 -19z m-1923 -18 c3 -23 -18 -37 -43 -28 -16 6 -20 35 -8
48 14 14 48 1 51 -20z m1844 -20 l27 -22 -26 -23 c-14 -13 -46 -53 -71 -88
l-47 -65 -9 32 c-8 28 -6 34 18 53 14 11 26 27 26 34 0 8 5 36 11 64 12 55 20
57 71 15z m-1908 -19 c14 -11 47 -15 110 -16 74 -1 85 -3 61 -11 -42 -13 -235
-12 -270 3 l-30 12 45 12 c59 17 62 17 84 0z m767 -14 c39 -40 41 -97 3 -135
-63 -62 -174 -20 -174 67 0 88 107 131 171 68z m319 9 c0 -6 -7 -13 -15 -17
-9 -3 -23 -20 -32 -37 -18 -35 -73 -106 -82 -106 -3 0 -12 4 -20 9 -12 8 -4
23 40 74 60 72 109 107 109 77z m53 -62 c7 -24 -5 -48 -29 -54 -49 -12 -73 41
-32 70 22 16 52 8 61 -16z m-922 -1 c18 -13 132 -198 126 -203 -2 -2 -26 29
-54 69 -29 40 -70 90 -92 110 -36 33 -38 37 -19 37 13 0 30 -6 39 -13z m1109
-7 c0 -11 -7 -20 -15 -20 -8 0 -15 9 -15 20 0 11 7 20 15 20 8 0 15 -9 15 -20z
m270 -5 c26 -32 -13 -81 -47 -59 -35 22 -23 74 17 74 10 0 23 -7 30 -15z m132
-18 c21 -17 27 -32 30 -72 l3 -50 -89 -18 c-83 -16 -90 -16 -107 -1 -14 13
-16 21 -8 35 20 39 118 129 139 128 3 0 17 -10 32 -22z m-449 -7 c9 -11 24
-20 32 -20 8 0 15 -2 15 -3 0 -20 -83 -154 -108 -175 -36 -28 -59 2 -27 34 25
25 17 49 -25 83 l-40 32 21 27 c32 42 104 54 132 22z m-223 -25 c7 -8 18 -15
25 -15 6 0 20 -9 30 -20 34 -37 11 -58 -125 -113 -123 -49 -162 -57 -340 -68
-32 -2 -158 19 -179 30 -12 7 -21 21 -21 36 0 38 21 41 49 6 34 -40 80 -43
110 -6 19 26 20 26 170 24 82 0 155 2 161 6 6 4 15 16 19 26 8 23 73 108 82
109 4 0 12 -7 19 -15z m-457 -28 c10 -27 73 -47 145 -47 73 0 102 -6 102 -21
0 -5 -50 -9 -110 -9 -108 0 -112 1 -135 28 -24 27 -33 62 -16 62 5 0 11 -6 14
-13z m788 -7 c31 -17 18 -70 -17 -70 -14 0 -44 27 -44 40 0 9 28 40 36 40 3 0
14 -5 25 -10z m-457 -22 c8 -14 7 -21 -6 -34 -30 -30 -75 9 -48 42 16 18 39
15 54 -8z m-494 -38 c0 -5 -4 -10 -10 -10 -5 0 -10 5 -10 10 0 6 5 10 10 10 6
0 10 -4 10 -10z m743 -4 c7 -17 -18 -40 -33 -31 -5 3 -10 15 -10 26 0 23 35
27 43 5z m150 -20 c12 -8 50 -17 84 -21 76 -8 103 -31 84 -71 -9 -21 -16 -25
-36 -20 -14 3 -36 9 -50 12 -19 5 -31 -1 -54 -25 l-28 -30 -22 23 c-11 12 -21
26 -21 31 0 5 -7 16 -16 26 -15 17 -15 21 6 54 25 40 23 40 53 21z m223 -7 c3
-6 0 -17 -7 -25 -18 -17 -44 -2 -36 20 7 18 33 21 43 5z m-422 -21 c22 -22 46
-76 46 -104 0 -19 -52 -18 -114 1 -27 8 -78 20 -114 26 l-64 11 108 44 c60 23
110 43 112 43 2 1 13 -9 26 -21z m571 12 c-3 -5 -36 -27 -73 -49 -111 -65
-146 -65 -77 1 24 22 52 37 88 44 69 15 69 15 62 4z m-441 -82 c8 -14 7 -21
-6 -34 -30 -30 -75 9 -48 42 16 18 39 15 54 -8z m87 -127 c25 -57 35 -116 20
-125 -6 -4 -11 -1 -11 8 0 24 -46 71 -121 122 l-71 49 53 5 c30 4 54 11 57 19
7 20 50 -27 73 -78z"/>
<path d="M932 1671 c-8 -4 -12 -19 -10 -32 2 -19 9 -24 33 -24 27 0 30 3 30
30 0 22 -5 31 -20 33 -11 1 -26 -2 -33 -7z"/>
<path d="M1464 1635 c-8 -20 4 -35 27 -35 14 0 19 7 19 25 0 18 -5 25 -20 25
-11 0 -23 -7 -26 -15z"/>
<path d="M1720 1599 c0 -5 5 -7 10 -4 6 3 10 8 10 11 0 2 -4 4 -10 4 -5 0 -10
-5 -10 -11z"/>
<path d="M1952 1309 c2 -6 8 -10 13 -10 5 0 11 4 13 10 2 6 -4 11 -13 11 -9 0
-15 -5 -13 -11z"/>
<path d="M748 1143 c7 -3 16 -2 19 1 4 3 -2 6 -13 5 -11 0 -14 -3 -6 -6z"/>
<path d="M2398 813 c7 -3 16 -2 19 1 4 3 -2 6 -13 5 -11 0 -14 -3 -6 -6z"/>
<path d="M1152 669 c2 -6 8 -10 13 -10 5 0 11 4 13 10 2 6 -4 11 -13 11 -9 0
-15 -5 -13 -11z"/>
<path d="M1242 671 c2 -7 7 -12 11 -12 12 1 9 15 -3 20 -7 2 -11 -2 -8 -8z"/>
<path d="M1146 607 c16 -44 80 -49 115 -9 l24 27 -26 -22 c-32 -29 -66 -29
-96 -1 -19 18 -23 19 -17 5z"/>
<path d="M1860 544 c-11 -12 -10 -18 3 -32 16 -15 18 -15 34 0 13 14 14 20 3
32 -7 9 -16 16 -20 16 -4 0 -13 -7 -20 -16z"/>
</g>
</svg>
