<?xml version="1.0" standalone="no"?>
<!DOCTYPE svg PUBLIC "-//W3C//DTD SVG 20010904//EN"
 "http://www.w3.org/TR/2001/REC-SVG-20010904/DTD/svg10.dtd">
<svg version="1.0" xmlns="http://www.w3.org/2000/svg"
 width="478.000000pt" height="396.000000pt" viewBox="0 0 478.000000 396.000000"
 preserveAspectRatio="xMidYMid meet">

<g transform="translate(0.000000,396.000000) scale(0.100000,-0.100000)"
fill="#000000" stroke="none">
<path d="M1726 3865 c-131 -36 -279 -150 -336 -258 l-25 -48 -45 6 c-47 6
-192 -9 -213 -22 -7 -4 -20 -9 -30 -10 -24 -4 -106 -47 -142 -75 -91 -70 -165
-177 -200 -288 -17 -52 -21 -57 -75 -83 -74 -37 -195 -128 -195 -147 -1 -8 -6
-14 -13 -13 -6 2 -34 -21 -61 -49 -38 -40 -48 -55 -39 -65 8 -10 7 -12 -4 -8
-40 16 -157 -223 -194 -398 -27 -130 -18 -343 21 -483 14 -48 17 -52 52 -58
21 -3 62 -6 92 -6 l53 0 -6 35 c-25 134 -24 299 3 415 38 165 120 312 243 433
69 68 202 163 244 173 16 4 25 17 33 51 28 110 106 218 204 282 92 60 171 83
283 83 l90 0 23 43 c31 58 134 156 199 189 141 72 342 74 460 5 42 -24 50 -24
104 5 58 31 131 46 221 46 128 0 232 -40 324 -124 l54 -49 72 24 c95 32 233
32 321 0 115 -41 218 -126 274 -224 27 -48 27 -49 70 -43 101 13 262 -52 352
-143 103 -103 153 -228 149 -371 l-3 -85 50 -51 c115 -118 168 -295 133 -443
-10 -43 -9 -45 26 -74 20 -16 53 -53 74 -81 248 -335 159 -806 -190 -1011
-185 -108 -456 -110 -611 -3 l-27 19 -27 -53 c-42 -83 -103 -152 -174 -196
-97 -59 -159 -77 -265 -76 -106 2 -165 20 -247 75 -31 22 -59 39 -62 39 -3 0
-7 -120 -8 -267 l-3 -266 -40 -21 c-28 -14 -64 -22 -117 -24 -43 -2 -78 -7
-78 -11 0 -14 54 -33 105 -38 64 -7 131 11 160 43 22 24 23 32 27 227 3 177 5
207 22 231 17 26 22 28 64 22 25 -3 50 -10 56 -15 21 -17 134 -41 193 -41 145
0 255 48 341 147 107 125 117 133 158 133 22 -1 57 -8 79 -16 171 -63 343 -48
554 47 180 81 323 245 398 454 26 75 28 90 28 235 0 144 -2 160 -29 235 -38
108 -97 207 -169 282 l-60 63 -1 153 -1 153 -43 88 c-30 59 -62 105 -100 143
l-56 56 -2 116 c-3 168 -42 267 -149 376 -101 104 -218 158 -367 170 -85 7
-87 8 -99 39 -8 17 -48 66 -89 108 -62 62 -93 85 -166 120 l-89 43 -135 0
c-116 0 -144 -3 -197 -23 l-63 -23 -37 37 c-102 98 -210 144 -358 151 -112 6
-192 -10 -278 -54 l-50 -25 -36 20 c-20 11 -67 29 -105 41 -80 25 -222 27
-300 6z"/>
<path d="M1795 1409 c-121 -100 -248 -164 -390 -194 -84 -18 -245 -24 -330
-12 l-50 7 40 -15 c35 -13 176 -35 227 -35 12 0 19 -11 24 -35 5 -30 10 -35
35 -35 19 0 39 10 57 29 19 20 60 40 137 66 61 21 126 47 145 59 19 12 47 28
62 35 15 8 36 21 46 30 37 33 81 60 106 67 14 3 26 9 26 13 0 7 -65 71 -71 71
-2 0 -31 -23 -64 -51z"/>
<path d="M2166 1241 c16 -14 157 -69 197 -76 34 -7 39 -5 35 10 -2 14 -23 22
-88 35 -47 10 -98 23 -113 29 -34 13 -44 14 -31 2z"/>
</g>
</svg>
